<svg width="64" height="64" viewBox="0 0 64 64" fill="none" xmlns="http://www.w3.org/2000/svg">
<g filter="url(#filter0_d_2134_14754)">
<path d="M8 30C8 16.7452 18.7452 6 32 6C45.2548 6 56 16.7452 56 30C56 43.2548 45.2548 54 32 54C18.7452 54 8 43.2548 8 30Z" fill="#3C3E48"/>
<path d="M32 38.5V21M32 21L25 27.5625M32 21L39 27.5625" stroke="white" stroke-width="1.5" stroke-linecap="round" stroke-linejoin="round"/>
<path d="M32 38.5V21M32 21L25 27.5625M32 21L39 27.5625" stroke="#3C3E48" stroke-width="1.5" stroke-linecap="round" stroke-linejoin="round"/>
<path d="M32 20.666V39.3327" stroke="white" stroke-width="2.33333" stroke-linecap="round"/>
<path d="M24.4165 27.6673L31.717 20.3668C31.8732 20.2106 32.1265 20.2106 32.2827 20.3668L39.5832 27.6673" stroke="white" stroke-width="2.33333" stroke-linecap="round"/>
</g>
<defs>
<filter id="filter0_d_2134_14754" x="0" y="0" width="64" height="64" filterUnits="userSpaceOnUse" color-interpolation-filters="sRGB">
<feFlood flood-opacity="0" result="BackgroundImageFix"/>
<feColorMatrix in="SourceAlpha" type="matrix" values="0 0 0 0 0 0 0 0 0 0 0 0 0 0 0 0 0 0 127 0" result="hardAlpha"/>
<feOffset dy="2"/>
<feGaussianBlur stdDeviation="4"/>
<feComposite in2="hardAlpha" operator="out"/>
<feColorMatrix type="matrix" values="0 0 0 0 0 0 0 0 0 0 0 0 0 0 0 0 0 0 0.25 0"/>
<feBlend mode="normal" in2="BackgroundImageFix" result="effect1_dropShadow_2134_14754"/>
<feBlend mode="normal" in="SourceGraphic" in2="effect1_dropShadow_2134_14754" result="shape"/>
</filter>
</defs>
</svg>
